#!OML:ASF X:\2005_08_12_Meinard\c3d\meinard.ASF
:FULLY-SPECIFIED
:DEGREES
725
root 3.14083 16.0896 -0.397828 87.8719 -51.014 -132.049
lowerback 69.6005 1.55084 9.33527
upperback 18.6837 -0.233492 12.0258
thorax 0.0295693 -5.44378 10.003
lowerneck -3.94141 -10.8191 -7.91002
upperneck -4.74657 -14.5663 21.5033
head 1.55706 -7.50572 7.1815
rclavicle -6.2816e-014 -1.43125e-014
rhumerus -29.7126 -20.7549 -74.1686
rradius 19.4378
rwrist 43.6712
rhand -7.15125 -9.13539
rfingers 7.12502
rthumb 18.7253 -38.2541
lclavicle -6.2816e-014 -1.43125e-014
lhumerus -26.3471 -2.06857 52.7039
lradius 37.2337
lwrist -202.593
lhand -9.48218 -1.2981
lfingers 7.12502
lthumb 16.4822 28.0218
rfemur -198.617 -170.62 160.234
rtibia 31.8363
rfoot 168.833 139.512
rtoes -1.34254
lfemur 25.9568 -2.73004 13.6897
ltibia 49.5411
lfoot -21.8421 23.5742
ltoes 20.5229
726
root 3.11598 16.0756 -0.478128 87.9577 -50.8385 -132.27
lowerback 69.2166 1.60284 9.12367
upperback 18.5648 -0.217364 11.8053
thorax -0.143834 -5.34508 9.81243
lowerneck -3.66804 -10.8006 -8.4599
upperneck -4.83404 -14.5451 21.9535
head 1.5673 -7.51316 7.42508
rclavicle -5.725e-014 9.06458e-014
rhumerus -30.0511 -19.1634 -75.5364
rradius 19.6362
rwrist 41.082
rhand -7.17445 -9.28011
rfingers 7.12502
rthumb 18.703 -38.401
lclavicle -5.725e-014 9.06458e-014
lhumerus -26.8134 0.824481 51.3754
lradius 35.4958
lwrist -205.061
lhand -8.39103 -1.39644
lfingers 7.12502
lthumb 17.5326 27.833
rfemur -199.807 -165.589 161.565
rtibia 38.5406
rfoot 171.66 147.037
rtoes 3.78352
lfemur 26.3694 -3.49708 13.4056
ltibia 49.4295
lfoot -21.6291 24.2698
ltoes 20.8555
727
root 3.09685 16.0734 -0.542402 88.1459 -50.5931 -132.463
lowerback 68.8232 1.61366 8.94712
upperback 18.3851 -0.19758 11.5797
thorax -0.383859 -5.23162 9.60635
lowerneck -3.44256 -10.7661 -8.85259
upperneck -4.95748 -14.4985 22.2662
head 1.54634 -7.50939 7.60415
rclavicle -9.70069e-014 1.98785e-014
rhumerus -30.3693 -17.208 -76.859
rradius 20.0809
rwrist 38.6871
rhand -6.92001 -9.17385
rfingers 7.12502
rthumb 18.9477 -38.271
lclavicle -9.70069e-014 1.98785e-014
lhumerus -27.4646 3.45579 49.9911
lradius 34.157
lwrist -207.287
lhand -7.5193 -1.603
lfingers 7.12502
lthumb 18.3713 27.5495
rfemur -200.826 -162.058 162.741
rtibia 45.2405
rfoot 172.041 153.035
rtoes 4.14573
lfemur 26.6614 -4.17108 13.1635
ltibia 49.3003
lfoot -21.4023 24.9598
ltoes 21.162
728
root 3.0824 16.0738 -0.599085 88.4864 -50.28 -132.707
lowerback 68.3034 1.51495 8.87634
upperback 18.2089 -0.240049 11.2863
thorax -0.601121 -5.12293 9.29352
lowerneck -2.95553 -10.6901 -9.25158
upperneck -5.26248 -14.3782 22.5867
head 1.41844 -7.49339 7.8162
rclavicle -7.15625e-014 2.62396e-014
rhumerus -30.7339 -15.6019 -77.883
rradius 20.6319
rwrist 37.5628
rhand -6.49985 -8.77114
rfingers 7.12502
rthumb 19.3518 -37.8282
lclavicle -7.15625e-014 2.62396e-014
lhumerus -28.2473 5.68902 48.6094
lradius 33.1951
lwrist -209.15
lhand -7.06153 -1.82119
lfingers 7.12502
lthumb 18.8116 27.2892
rfemur -201.721 -159.379 163.887
rtibia 51.7538
rfoot 171.931 157.619
rtoes 5.25521
lfemur 26.8534 -4.72253 13.0086
ltibia 49.1922
lfoot -21.1679 25.6255
ltoes 21.4506
729
root 3.07327 16.0958 -0.63753 89.0194 -49.8705 -132.988
lowerback 67.7129 1.42676 8.82666
upperback 18.0036 -0.243511 11.0046
thorax -0.858415 -4.9865 8.97032
lowerneck -2.57786 -10.5996 -9.52232
upperneck -5.51706 -14.2444 22.8095
head 1.30165 -7.46345 7.97196
rclavicle -3.57812e-014 -7.15625e-014
rhumerus -31.0501 -14.5694 -78.4945
rradius 21.1149
rwrist 37.9585
rhand -6.0444 -8.0572
rfingers 7.12502
rthumb 19.7897 -37.0698
lclavicle -3.57812e-014 -7.15625e-014
lhumerus -29.1338 7.36917 47.3378
lradius 32.5843
lwrist -210.55
lhand -7.03686 -1.97384
lfingers 7.12502
lthumb 18.8354 27.1342
rfemur -202.561 -157.346 165.217
rtibia 57.919
rfoot 171.93 160.904
rtoes 7.22995
lfemur 27.031 -5.06872 13.006
ltibia 48.777
lfoot -20.7705 26.1497
ltoes 21.7058
730
root 3.06731 16.1332 -0.665272 89.8211 -49.5181 -133.37
lowerback 66.963 1.41332 8.66393
upperback 17.8008 -0.221737 10.6977
thorax -1.12906 -4.82208 8.64673
lowerneck -2.42462 -10.5248 -9.60985
upperneck -5.58732 -14.1517 22.8977
head 1.2551 -7.43283 8.03384
rclavicle 2.8625e-014 1.74931e-014
rhumerus -31.2807 -14.5776 -78.5836
rradius 21.3968
rwrist 40.0952
rhand -5.68838 -7.07518
rfingers 7.12502
rthumb 20.1319 -36.0521
lclavicle 2.8625e-014 1.74931e-014
lhumerus -30.0763 8.21865 46.2534
lradius 32.3295
lwrist -211.308
lhand -7.52037 -2.12826
lfingers 7.12502
lthumb 18.3703 27.0243
rfemur -203.399 -155.657 166.636
rtibia 63.8693
rfoot 171.542 163.294
rtoes 7.67474
lfemur 27.132 -5.18125 12.9738
ltibia 48.2184
lfoot -20.3183 26.6148
ltoes 21.9025
731
root 3.06246 16.2098 -0.670016 90.9422 -49.3449 -133.86
lowerback 65.9139 1.50984 8.28597
upperback 17.6542 -0.206084 10.3714
thorax -1.35632 -4.64437 8.37307
lowerneck -2.36017 -10.4405 -9.62801
upperneck -5.56224 -14.0553 22.9259
head 1.2392 -7.39031 8.05802
rclavicle 2.8625e-014 3.33958e-014
rhumerus -31.4107 -15.2667 -78.2852
rradius 21.6141
rwrist 43.1942
rhand -5.47634 -6.05565
rfingers 7.12502
rthumb 20.3357 -35.011
lclavicle 2.8625e-014 3.33958e-014
lhumerus -31.0022 8.64198 45.3539
lradius 32.1933
lwrist -211.825
lhand -8.21656 -2.10184
lfingers 7.12502
lthumb 17.7005 27.1125
rfemur -203.944 -154.313 167.999
rtibia 69.2996
rfoot 170.909 164.959
rtoes 9.00545
lfemur 27.2059 -5.06988 12.6395
ltibia 47.4081
lfoot -19.7127 27.1498
ltoes 21.9991
732
root 3.05916 16.253 -0.697057 92.3391 -49.2166 -134.459
lowerback 64.7376 1.63349 7.83183
upperback 17.4798 -0.179756 10.0199
thorax -1.61392 -4.44636 8.09799
lowerneck -2.45565 -10.3512 -9.54303
upperneck -5.33836 -13.9729 22.8596
head 1.29284 -7.33461 8.01914
rclavicle 3.65764e-014 -3.02153e-014
rhumerus -31.5355 -16.3853 -77.704
rradius 21.9158
rwrist 46.4878
rhand -5.36966 -5.09718
rfingers 7.12502
rthumb 20.4382 -34.0415
lclavicle 3.65764e-014 -3.02153e-014
lhumerus -31.8793 9.36791 44.4352
lradius 31.9741
lwrist -212.861
lhand -9.00889 -1.71304
lfingers 7.12502
lthumb 16.9379 27.5684
rfemur -204.767 -153.342 169.387
rtibia 74.4015
rfoot 170.493 166.072
rtoes 10.4041
lfemur 27.0739 -4.8784 12.3205
ltibia 46.6626
lfoot -19.1435 27.6144
ltoes 22.0553
733
root 3.05674 16.307 -0.714573 93.9355 -49.221 -135.122
lowerback 63.4625 1.79105 7.16482
upperback 17.2895 -0.223186 9.64519
thorax -1.88295 -4.28146 7.91682
lowerneck -2.70998 -10.2021 -9.28858
upperneck -4.88774 -13.8323 22.6174
head 1.40032 -7.22817 7.88792
rclavicle -2.54444e-014 -2.06736e-014
rhumerus -31.531 -17.6302 -77.0039
rradius 22.2336
rwrist 49.4548
rhand -5.34471 -4.26016
rfingers 7.12502
rthumb 20.4622 -33.2019
lclavicle -2.54444e-014 -2.06736e-014
lhumerus -32.8425 10.4807 43.4269
lradius 31.6747
lwrist -214.354
lhand -9.76116 -1.06896
lfingers 7.12502
lthumb 16.2136 28.273
rfemur -205.675 -152.512 170.725
rtibia 79.0946
rfoot 169.904 166.887
rtoes 10.7947
lfemur 26.8389 -4.57572 11.7889
ltibia 45.8887
lfoot -18.5848 28.1443
ltoes 21.9527
734
root 3.05444 16.3565 -0.733135 95.7377 -49.2981 -135.894
lowerback 62.0876 1.98304 6.37519
upperback 17.0964 -0.279164 9.24867
thorax -2.14253 -4.12025 7.77195
lowerneck -3.02435 -10.0228 -8.87448
upperneck -4.36649 -13.66 22.2663
head 1.51296 -7.1003 7.69556
rclavicle -3.26007e-014 3.49861e-014
rhumerus -31.3557 -18.5409 -76.4493
rradius 22.5862
rwrist 51.2854
rhand -5.3135 -3.62957
rfingers 7.12502
rthumb 20.4922 -32.5681
lclavicle -3.26007e-014 3.49861e-014
lhumerus -33.7774 11.4591 42.4814
lradius 31.3943
lwrist -215.807
lhand -10.3401 -0.398038
lfingers 7.12502
lthumb 15.6561 28.9885
rfemur -206.586 -151.714 172.126
rtibia 83.4542
rfoot 169.124 167.588
rtoes 10.0514
lfemur 26.4372 -4.17232 11.1558
ltibia 45.2873
lfoot -18.1332 28.7226
ltoes 21.9194
735
root 3.05341 16.4026 -0.752711 97.6378 -49.4009 -136.704
lowerback 60.6713 2.15101 5.58297
upperback 16.8895 -0.340923 8.84412
thorax -2.3934 -3.96067 7.62985
lowerneck -3.53605 -9.87174 -8.45124
upperneck -3.69009 -13.5424 21.8692
head 1.70956 -6.97974 7.46849
rclavicle -7.15625e-015 -1.00187e-013
rhumerus -31.071 -19.1003 -76.0594
rradius 23.048
rwrist 51.8893
rhand -5.18067 -3.24078
rfingers 7.12502
rthumb 20.6198 -32.1655
lclavicle -7.15625e-015 -1.00187e-013
lhumerus -34.5942 12.3637 41.6007
lradius 31.104
lwrist -217.229
lhand -10.7107 0.250627
lfingers 7.12502
lthumb 15.2992 29.6648
rfemur -207.405 -150.969 173.661
rtibia 87.3981
rfoot 168.354 168.282
rtoes 8.60929
lfemur 25.939 -3.72592 10.5005
ltibia 44.7312
lfoot -17.782 29.2835
ltoes 21.6865
736
root 3.05379 16.4456 -0.768666 99.5787 -49.5065 -137.533
lowerback 59.3025 2.26941 4.86291
upperback 16.6321 -0.38858 8.43201
thorax -2.67617 -3.79144 7.45672
lowerneck -4.12594 -9.75537 -8.02853
upperneck -2.97361 -13.4812 21.4933
head 1.94332 -6.8817 7.24
rclavicle 3.73715e-014 -2.8625e-014
rhumerus -30.7376 -19.2944 -75.8189
rradius 23.57
rwrist 51.3005
rhand -4.97577 -2.97506
rfingers 7.12502
rthumb 20.8167 -31.8783
lclavicle 3.73715e-014 -2.8625e-014
lhumerus -35.2769 13.0743 40.8586
lradius 30.824
lwrist -218.449
lhand -10.8366 0.804797
lfingers 7.12502
lthumb 15.1779 30.2281
rfemur -208.051 -150.261 175.31
rtibia 90.8506
rfoot 167.623 169.005
rtoes 6.6793
lfemur 25.3485 -3.26741 9.81199
ltibia 44.2749
lfoot -17.5726 29.8851
ltoes 21.5636
737
root 3.05415 16.4834 -0.77964 101.565 -49.6382 -138.41
lowerback 57.9783 2.32255 4.24781
upperback 16.3471 -0.439825 7.97668
thorax -2.96203 -3.61906 7.20133
lowerneck -4.76697 -9.66606 -7.63017
upperneck -2.24466 -13.4621 21.1476
head 2.20147 -6.80144 7.02036
rclavicle -1.59028e-014 -2.06736e-014
rhumerus -30.359 -19.1583 -75.748
rradius 24.1409
rwrist 49.7606
rhand -4.76465 -2.8986
rfingers 7.12502
rthumb 21.0195 -31.7795
lclavicle -1.59028e-014 -2.06736e-014
lhumerus -35.8238 13.6559 40.2274
lradius 30.6055
lwrist -219.481
lhand -10.7849 1.2031
lfingers 7.12502
lthumb 15.2277 30.6227
rfemur -208.549 -149.62 177.024
rtibia 93.7815
rfoot 167.001 169.676
rtoes 5.40244
lfemur 24.7094 -2.80961 9.041
ltibia 43.88
lfoot -17.3519 30.5062
ltoes 21.2693
738
root 3.05453 16.5167 -0.786834 103.569 -49.8182 -139.315
lowerback 56.7362 2.34569 3.69378
upperback 15.9945 -0.464796 7.52314
thorax -3.30827 -3.43207 6.9247
lowerneck -5.29747 -9.62055 -7.36305
upperneck -1.57222 -13.4946 20.875
head 2.44849 -6.75376 6.84857
rclavicle 5.24792e-014 -5.24792e-014
rhumerus -30.0253 -18.7825 -75.7261
rradius 24.6941
rwrist 47.6762
rhand -4.58052 -3.00578
rfingers 7.12502
rthumb 21.1964 -31.8669
lclavicle 5.24792e-014 -5.24792e-014
lhumerus -36.2224 13.9442 39.8038
lradius 30.4313
lwrist -220.154
lhand -10.6932 1.42103
lfingers 7.12502
lthumb 15.316 30.8339
rfemur -208.847 -149.1 178.738
rtibia 96.1685
rfoot 166.676 170.276
rtoes 4.27634
lfemur 24.0322 -2.34304 8.19283
ltibia 43.5095
lfoot -17.1554 31.1238
ltoes 20.9936
